<svg xmlns="http://www.w3.org/2000/svg" width="32" height="32" fill="none" viewBox="0 0 500 500">
  <style>
    .fill {
      fill: #000;
    }
    @media (prefers-color-scheme: dark) {
      .fill {
        fill: #fff;
      }
    }
  </style>
  <g transform="translate(0.000000,500.000000) scale(0.100000,-0.100000)" class="fill">
    <path d="M854 3171 c-23 -10 -64 -57 -64 -73 0 -6 -23 -62 -51 -127 -27 -64
    -69 -159 -91 -211 -23 -52 -58 -133 -78 -180 -21 -47 -61 -139 -90 -205 -29
    -66 -76 -174 -106 -241 -30 -67 -54 -124 -54 -127 0 -3 -15 -38 -34 -79 -42
    -91 -96 -220 -96 -230 0 -20 1380 -1 1645 23 375 33 774 161 1076 344 31 19
    62 35 69 35 7 0 88 -74 180 -164 92 -90 183 -172 201 -182 31 -16 67 -18 392
    -17 197 0 361 4 365 7 3 4 -19 31 -49 59 -31 29 -116 108 -190 176 -127 118
    -172 161 -346 326 -83 78 -83 77 6 126 31 18 119 69 196 114 277 162 536 312
    740 430 55 32 128 75 163 96 35 22 66 39 70 39 4 0 27 13 51 30 33 21 41 31
    30 35 -9 3 -225 4 -480 3 l-466 -3 -60 -37 c-34 -21 -63 -38 -66 -38 -3 0 -45
    -24 -94 -53 -48 -30 -155 -93 -238 -141 -82 -49 -182 -107 -221 -131 -39 -23
    -79 -45 -90 -49 -16 -5 -44 19 -137 113 -151 154 -252 222 -408 276 -163 56
    -167 56 -939 61 -423 2 -724 0 -736 -5z m1240 -274 c106 -36 171 -84 350 -258
    97 -94 176 -174 176 -178 0 -9 -114 -94 -245 -183 -200 -137 -383 -221 -571
    -264 -69 -16 -129 -18 -476 -18 -218 0 -400 3 -404 7 -8 8 11 60 86 232 59
    134 136 315 196 455 68 160 93 206 117 218 15 8 131 11 372 8 294 -2 358 -5
    399 -19z"/>
  </g>
</svg>
